#!OML:ASF F:\VICON\USERDATA\INSTALL\rory3\rory3.ASF
:FULLY-SPECIFIED
:DEGREES
119
root 0.578381 18.7343 32.3952 6.63331 0.382378 -3.15948
lowerback 14.4158 2.05283 5.06453
upperback 0.506992 3.51182 -0.506773
thorax -7.21201 1.52554 -4.10994
lowerneck -6.63928 -0.643717 -1.41196
upperneck -7.74412 -0.7025 1.38371
head -1.27985 -0.320185 0.653336
rclavicle 3.00165e-014 1.5207e-014
rhumerus -29.0502 20.922 -82.5162
rradius 111.536
rwrist -7.3601
rhand -37.5656 37.7829
rfingers 7.12502
rthumb -10.6203 8.07127
lclavicle 3.00165e-014 1.5207e-014
lhumerus -62.2729 -6.81402 90.6393
lradius 113.772
lwrist 30.6256
lhand -31.4234 9.10527
lfingers 7.12502
lthumb -4.69202 39.0333
rfemur 25.3116 8.61846 30.7255
rtibia 14.7586
rfoot 31.8838 -11.4353
rtoes 18.7591
lfemur -44.5476 -8.78949 -12.5627
ltibia 53.5131
lfoot 5.76862 -2.40728
ltoes -19.2425
120
root 0.589939 18.7456 32.9273 6.76641 0.266086 -3.45594
lowerback 14.219 2.0871 5.26749
upperback 0.597457 3.58223 -0.425224
thorax -6.99043 1.56464 -4.1357
lowerneck -7.32385 -0.66614 -1.62203
upperneck -7.60924 -0.708423 1.43423
head -1.12512 -0.315536 0.69975
rclavicle -5.71506e-016 -6.06293e-015
rhumerus -29.4022 21.7175 -82.8159
rradius 111.358
rwrist -6.84883
rhand -37.3105 38.1129
rfingers 7.12502
rthumb -10.3741 8.38884
lclavicle -5.71506e-016 -6.06293e-015
lhumerus -61.683 -6.25805 90.5475
lradius 114.002
lwrist 30.2875
lhand -32.2348 9.58467
lfingers 7.12502
lthumb -5.47539 39.4939
rfemur 24.7742 9.1885 31.3795
rtibia 18.2049
rfoot 30.6307 -10.1736
rtoes 19.0066
lfemur -43.4206 -8.87489 -11.975
ltibia 47.8217
lfoot 5.91282 -3.31949
ltoes -25.5388
121
root 0.592471 18.7428 33.4548 6.84868 0.231423 -3.86934
lowerback 13.773 2.06983 5.47948
upperback 0.913954 3.56369 -0.308599
thorax -6.39866 1.58006 -4.09001
lowerneck -7.47359 -0.641474 -1.61612
upperneck -8.24154 -0.673434 1.31268
head -1.30043 -0.295159 0.664275
rclavicle 5.09634e-014 5.46658e-015
rhumerus -29.2263 22.4671 -83.0093
rradius 111.017
rwrist -6.20555
rhand -37.0479 37.9258
rfingers 7.12502
rthumb -10.1209 8.18924
lclavicle 5.09634e-014 5.46658e-015
lhumerus -60.5723 -5.66084 90.3672
lradius 114.122
lwrist 29.7521
lhand -34.2416 11.4876
lfingers 7.12502
lthumb -7.41277 41.3378
rfemur 23.9617 9.67616 32.2188
rtibia 22.2211
rfoot 29.8774 -9.07266
rtoes 19.2078
lfemur -41.9926 -8.92134 -11.2925
ltibia 42.0715
lfoot 6.60955 -3.44255
ltoes -22.7023
122
root 0.590394 18.7423 33.9884 6.82696 -0.994973 -3.87055
lowerback 14.1733 2.50305 4.99332
upperback 0.727341 4.08135 -0.41888
thorax -6.79146 1.82616 -4.05871
lowerneck -6.76271 -0.500386 -1.38103
upperneck -8.81992 -0.525053 0.938537
head -1.60414 -0.224205 0.516415
rclavicle 2.69602e-014 1.68967e-014
rhumerus -30.0072 23.1788 -83.6449
rradius 110.455
rwrist -5.49362
rhand -37.0734 37.3938
rfingers 7.12502
rthumb -10.1455 7.65844
lclavicle 2.69602e-014 1.68967e-014
lhumerus -60.2355 -5.33345 90.2126
lradius 114.135
lwrist 29.2974
lhand -33.7641 10.8367
lfingers 7.12502
lthumb -6.95188 40.7026
rfemur 23.2723 10.5259 32.1351
rtibia 26.2974
rfoot 29.3745 -7.78094
rtoes 17.4752
lfemur -40.0474 -8.36465 -11.0766
ltibia 36.5548
lfoot 6.87449 -3.49862
ltoes -24.3894
123
root 0.568106 18.7335 34.4895 6.66838 -2.56768 -4.06199
lowerback 14.8241 3.03414 4.18188
upperback 0.697082 4.68553 -0.377886
thorax -7.19299 2.12959 -3.72004
lowerneck -6.49217 -0.330632 -1.14228
upperneck -9.25488 -0.330197 0.620891
head -1.79157 -0.129009 0.381502
rclavicle 5.26531e-014 -2.27608e-014
rhumerus -30.5737 23.8226 -84.1971
rradius 109.713
rwrist -4.77092
rhand -37.0965 36.875
rfingers 7.12502
rthumb -10.1678 7.14069
lclavicle 5.26531e-014 -2.27608e-014
lhumerus -59.4701 -4.92809 89.9795
lradius 114.14
lwrist 29.2087
lhand -33.1519 10.4184
lfingers 7.12502
lthumb -6.36089 40.3029
rfemur 22.6491 11.7873 32.3873
rtibia 30.2672
rfoot 29.282 -7.10442
rtoes 13.5088
lfemur -38.0669 -7.79959 -10.4421
ltibia 31.5091
lfoot 7.24941 -3.19053
ltoes -26.0643
124
root 0.553493 18.7027 35.0351 6.92588 -3.65345 -5.12454
lowerback 14.2507 3.37521 4.4978
upperback 0.733673 5.17734 -0.15552
thorax -6.78409 2.37854 -3.70677
lowerneck -6.26455 -0.222827 -0.839372
upperneck -9.60492 -0.210245 0.478499
head -1.94445 -0.0761188 0.288595
rclavicle -2.48481e-014 1.11319e-014
rhumerus -31.3271 24.0993 -84.8269
rradius 108.919
rwrist -4.02729
rhand -36.8691 36.1727
rfingers 7.12502
rthumb -9.94833 6.42774
lclavicle -2.48481e-014 1.11319e-014
lhumerus -58.5477 -4.69726 89.7157
lradius 114.084
lwrist 29.294
lhand -33.2301 10.124
lfingers 7.12502
lthumb -6.43638 40.0062
rfemur 21.7493 12.4661 33.3443
rtibia 34.059
rfoot 29.6281 -6.53011
rtoes 12.6043
lfemur -36.6163 -7.30877 -8.90391
ltibia 27.1854
lfoot 7.91849 -2.59919
ltoes -23.7876
125
root 0.577672 18.6486 35.6353 6.74412 -3.02744 -4.24368
lowerback 12.9332 3.12584 4.09298
upperback 1.17777 4.69088 -0.487779
thorax -5.62445 2.19847 -3.62597
lowerneck -6.29757 -0.216554 -0.818136
upperneck -9.8417 -0.194789 0.583335
head -2.01626 -0.070345 0.3185
rclavicle -8.99501e-015 1.47101e-014
rhumerus -32.0411 24.1206 -85.2137
rradius 108.189
rwrist -3.44827
rhand -36.5799 34.8911
rfingers 7.12502
rthumb -9.6693 5.13299
lclavicle -8.99501e-015 1.47101e-014
lhumerus -57.2402 -4.6175 89.5525
lradius 113.769
lwrist 29.4769
lhand -33.3978 9.81662
lfingers 7.12502
lthumb -6.59829 39.6938
rfemur 21.2531 11.2588 32.2312
rtibia 38.0802
rfoot 29.2743 -6.10191
rtoes 12.4436
lfemur -34.7818 -8.02309 -10.0944
ltibia 23.5658
lfoot 7.9349 -2.51125
ltoes -26.4416
126
root 0.662039 18.5824 36.1955 7.03998 -2.05386 -2.9908
lowerback 11.5897 2.6376 4.30626
upperback 1.45537 3.97578 -1.12825
thorax -4.58635 1.87863 -4.20557
lowerneck -6.51868 -0.236623 -0.90978
upperneck -9.92628 -0.198848 0.831334
head -2.00656 -0.0730434 0.411333
rclavicle -2.92213e-014 -3.18055e-015
rhumerus -32.8411 23.992 -85.7016
rradius 107.297
rwrist -2.94265
rhand -36.9515 34.3821
rfingers 7.12502
rthumb -10.0278 4.64098
lclavicle -2.92213e-014 -3.18055e-015
lhumerus -55.7353 -4.62259 89.3863
lradius 113.362
lwrist 29.8221
lhand -33.8201 9.07008
lfingers 7.12502
lthumb -7.00594 38.9341
rfemur 19.9863 9.16788 29.526
rtibia 42.2947
rfoot 29.0896 -5.06855
rtoes 12.1994
lfemur -33.7834 -8.76991 -12.1335
ltibia 20.7954
lfoot 7.95753 -1.31073
ltoes -27.884
127
root 0.650566 18.5005 36.6608 7.06339 -0.897902 -3.10295
lowerback 12.1436 2.15718 4.45082
upperback 1.27407 3.3855 -1.13133
thorax -5.13569 1.56319 -4.24566
lowerneck -6.16116 -0.24968 -0.735381
upperneck -10.1151 -0.21581 0.986315
head -2.12919 -0.0914589 0.432565
rclavicle -1.78906e-015 -6.55989e-015
rhumerus -33.6313 23.7605 -86.2578
rradius 105.86
rwrist -3.10987
rhand -37.2549 35.0138
rfingers 7.12502
rthumb -10.3205 5.28706
lclavicle -1.78906e-015 -6.55989e-015
lhumerus -54.5658 -4.83694 89.1496
lradius 113.19
lwrist 30.3759
lhand -34.099 9.48063
lfingers 7.12502
lthumb -7.27513 39.3356
rfemur 18.3614 8.06731 30.0963
rtibia 46.9537
rfoot 29.5302 -6.54502
rtoes 10.9598
lfemur -33.0911 -8.46344 -12.5017
ltibia 18.815
lfoot 8.6559 -0.00543896
ltoes -28.6482
128
root 0.609357 18.3986 37.1411 6.60821 0.00274541 -3.14657
lowerback 13.0593 1.74039 3.95753
upperback 1.10835 2.81176 -1.03046
thorax -5.90821 1.26558 -3.82273
lowerneck -5.32258 -0.0802953 -0.528715
upperneck -10.4022 0.0108615 1.12376
head -2.371 0.0083997 0.443842
rclavicle -3.60794e-014 1.15295e-014
rhumerus -34.3145 23.7365 -86.818
rradius 104.087
rwrist -3.66689
rhand -37.1699 35.163
rfingers 7.12502
rthumb -10.2386 5.43216
lclavicle -3.60794e-014 1.15295e-014
lhumerus -53.6554 -4.9562 88.8723
lradius 113.091
lwrist 30.9954
lhand -34.2104 10.6348
lfingers 7.12502
lthumb -7.38264 40.486
rfemur 16.6953 7.09512 30.8907
rtibia 52.7274
rfoot 29.375 -8.24716
rtoes 24.1249
lfemur -31.4354 -7.95153 -12.9905
ltibia 16.7473
lfoot 9.78133 1.47568
ltoes -29.924
